<?xml version="1.0" encoding="UTF-8" standalone="no"?>
<svg
   xmlns:dc="http://purl.org/dc/elements/1.1/"
   xmlns:cc="http://creativecommons.org/ns#"
   xmlns:rdf="http://www.w3.org/1999/02/22-rdf-syntax-ns#"
   xmlns:svg="http://www.w3.org/2000/svg"
   xmlns="http://www.w3.org/2000/svg"
   xmlns:sodipodi="http://sodipodi.sourceforge.net/DTD/sodipodi-0.dtd"
   xmlns:inkscape="http://www.inkscape.org/namespaces/inkscape"
   width="120"
   height="120"
   viewBox="0 0 120 120"
   version="1.1"
   xml:space="preserve"
   style="clip-rule:evenodd;fill-rule:evenodd;stroke-linejoin:round;stroke-miterlimit:1.41420996"
   id="svg3859"
   sodipodi:docname="5a61659a0b43d9c46ddb57a4_export.svg"
   inkscape:version="0.92.2 5c3e80d, 2017-08-06"><metadata
     id="metadata3865"><rdf:RDF><cc:Work
         rdf:about=""><dc:format>image/svg+xml</dc:format><dc:type
           rdf:resource="http://purl.org/dc/dcmitype/StillImage" /></cc:Work></rdf:RDF></metadata><defs
     id="defs3863" /><sodipodi:namedview
     pagecolor="#ffffff"
     bordercolor="#666666"
     borderopacity="1"
     objecttolerance="10"
     gridtolerance="10"
     guidetolerance="10"
     inkscape:pageopacity="0"
     inkscape:pageshadow="2"
     inkscape:window-width="1440"
     inkscape:window-height="779"
     id="namedview3861"
     showgrid="false"
     inkscape:zoom="2.16"
     inkscape:cx="118.84944"
     inkscape:cy="51.313298"
     inkscape:window-x="0"
     inkscape:window-y="0"
     inkscape:window-maximized="1"
     inkscape:current-layer="g3857" /><g
     id="g3857"
     transform="translate(-90,-40)"><path
       d="m 210,55 c 0,-8.279 -6.721,-15 -15,-15 h -90 c -8.279,0 -15,6.721 -15,15 v 90 c 0,8.279 6.721,15 15,15 h 90 c 8.279,0 15,-6.721 15,-15 z"
       id="path3849"
       inkscape:connector-curvature="0" /><g
       id="g3855"><path
         d="m 153.895,95.79 c -0.01,0.019 0.029,10e-4 0.163,-0.116 -0.009,0.004 -0.016,0.008 -0.024,0.013 -0.045,0.034 -0.092,0.069 -0.139,0.103 z"
         style="fill:#ffffff;fill-rule:nonzero"
         id="path3851"
         inkscape:connector-curvature="0" /><path
         d="m 195.842,96.687 c -0.836,-1.991 -2.07,-3.891 -3.381,-5.602 -1.179,-1.536 -2.522,-2.945 -4.023,-4.168 -3.015,-2.456 -6.593,-4.091 -10.354,-5.031 -1.23,-0.307 -2.474,-0.548 -3.726,-0.74 -0.612,-0.313 -1.238,-0.601 -1.873,-0.866 -2.803,-1.166 -5.741,-1.709 -8.759,-1.923 -2.895,-0.206 -5.843,-0.137 -8.688,0.484 -3.627,0.793 -6.812,2.64 -9.212,5.329 -0.033,-0.096 -0.12,-0.17 -0.279,-0.198 -2.229,-0.394 -4.629,0.128 -6.341,1.661 -1.614,1.447 -2.476,3.49 -2.709,5.615 -0.458,4.202 1.689,8.836 5.564,10.734 1.157,0.566 2.435,0.875 3.719,0.924 -1.512,0.345 -3.057,0.35 -4.637,-0.02 -1.967,-0.461 -4.235,-1.616 -5.063,-3.577 -0.522,-1.237 -0.341,-2.599 0.171,-3.807 0.326,-0.768 -0.702,-0.669 -0.962,-0.134 -1.161,2.394 -1.057,5.097 0.907,7.034 1.894,1.868 4.772,2.557 7.363,2.494 1.48,-0.036 3.079,-0.358 4.313,-1.214 0.302,-0.209 0.646,-0.546 0.626,-0.944 0.826,-0.148 1.623,-0.401 2.29,-0.809 0.369,-0.226 0.766,-0.665 0.74,-1.134 -0.003,-0.049 -0.01,-0.095 -0.021,-0.139 0.221,-0.24 0.373,-0.551 0.455,-0.904 -0.071,0.307 0.034,-0.107 0.042,-0.139 0.043,-0.163 0.093,-0.351 0.126,-0.526 0.041,-0.21 0.073,-0.422 0.114,-0.632 0.017,-0.09 0.036,-0.181 0.053,-0.271 0.008,-0.032 0.017,-0.065 0.025,-0.087 0.068,-0.202 0.13,-0.405 0.212,-0.603 0.065,-0.157 0.312,-0.592 0.088,-0.221 0.095,-0.158 0.185,-0.316 0.288,-0.467 0.102,-0.148 0.223,-0.282 0.325,-0.43 0.002,-0.002 0.002,-0.004 0.005,-0.006 0.068,-0.065 0.132,-0.136 0.201,-0.2 0.129,-0.121 0.264,-0.237 0.402,-0.346 0.016,-0.012 0.033,-0.023 0.049,-0.035 0.008,-0.015 0.049,-0.053 0.096,-0.079 0.014,-0.008 0.029,-0.016 0.043,-0.024 0.022,-0.017 0.046,-0.032 0.066,-0.052 -0.015,0.015 -0.029,0.027 -0.044,0.039 0.323,-0.178 0.638,-0.35 0.977,-0.502 0.045,-0.02 0.074,-0.034 0.098,-0.046 0.025,-0.006 0.058,-0.015 0.107,-0.028 0.174,-0.049 0.347,-0.102 0.524,-0.144 0.177,-0.042 0.357,-0.077 0.536,-0.107 0.109,-0.018 0.219,-0.029 0.327,-0.047 0.004,-0.001 0.006,-0.001 0.01,-0.002 0.007,0 0.012,0 0.021,0 0.373,-0.005 0.74,-0.028 1.113,-0.005 0.187,0.011 0.372,0.039 0.558,0.052 0.013,0.001 0.023,0.001 0.034,0.002 0.006,10e-4 0.01,0.002 0.017,0.004 0.11,0.023 0.222,0.042 0.332,0.065 0.367,0.081 0.729,0.185 1.083,0.313 0.07,0.026 0.402,0.167 0.393,0.156 0.163,0.079 0.325,0.162 0.483,0.251 0.331,0.189 0.639,0.407 0.942,0.636 0.061,0.047 0.334,0.307 0.049,0.036 0.055,0.053 0.115,0.101 0.168,0.156 0.163,0.165 0.326,0.327 0.478,0.502 0.128,0.148 0.246,0.303 0.363,0.459 0.003,0.005 0.052,0.076 0.091,0.13 0.037,0.058 0.084,0.133 0.087,0.137 0.224,0.396 0.412,0.806 0.57,1.233 -10e-4,-0.004 0.036,0.109 0.061,0.182 0.021,0.077 0.056,0.202 0.055,0.196 0.054,0.219 0.098,0.44 0.134,0.662 0.092,0.569 0.136,1.153 0.126,1.728 -0.013,0.894 -0.117,1.732 -0.32,2.545 -2.622,2.058 -5.576,3.395 -8.843,4.083 -3.385,0.713 -6.811,0.857 -10.258,0.9 -8.244,0.103 -16.468,-0.43 -24.705,-0.641 -4.954,-0.126 -9.977,-0.182 -14.907,0.382 -0.907,0.104 -0.879,1.646 0.071,1.621 4.469,-0.115 8.923,-0.154 13.392,0.022 4.476,0.175 8.947,0.447 13.424,0.618 3.977,0.152 7.96,0.225 11.94,0.196 1.508,-0.011 3.029,-0.056 4.545,-0.162 -6.952,1.494 -14.072,2.265 -21.166,2.901 -2.413,0.216 -4.824,0.45 -7.24,0.633 -0.68,0.052 -1.133,1.226 -0.243,1.225 5.883,-0.009 11.744,-0.353 17.589,-1.022 4.287,-0.49 8.561,-1.125 12.772,-2.075 3.685,-0.83 7.43,-1.866 10.784,-3.644 0.033,-0.018 0.066,-0.036 0.098,-0.053 -0.477,0.531 -0.995,1.034 -1.545,1.511 -3.153,2.736 -7.048,4.402 -10.99,5.851 -2.328,0.857 -4.889,1.632 -7.38,2.213 -1.05,0.244 -2.315,0.49 -3.269,0.588 -0.496,0.051 -0.997,0.075 -1.495,0.066 -0.356,-0.006 -0.684,-0.046 -1.024,0.114 -0.158,0.074 -0.307,0.176 -0.465,0.253 -0.424,0.207 -0.616,0.793 -0.294,1.171 0.367,0.429 0.718,0.664 1.298,0.717 0.481,0.044 0.967,0.045 1.45,0.029 1.159,-0.04 2.317,-0.183 3.459,-0.375 2.544,-0.426 5.043,-1.138 7.492,-1.937 4.562,-1.491 9.023,-3.269 12.764,-6.353 2.172,-1.79 4.03,-4.02 5.101,-6.641 1.008,-2.467 1.365,-5.475 0.675,-8.073 -1.067,-4.017 -4.709,-6.634 -8.823,-6.729 -1.332,-0.031 -2.671,0.207 -3.896,0.715 0.114,-0.096 0.229,-0.192 0.347,-0.285 0.036,-0.028 0.073,-0.055 0.11,-0.081 0.032,-0.02 0.19,-0.13 0.211,-0.144 0.146,-0.096 0.293,-0.188 0.442,-0.279 0.377,-0.228 0.764,-0.438 1.161,-0.63 -0.017,0.008 0.128,-0.059 0.202,-0.094 0.075,-0.031 0.223,-0.096 0.206,-0.089 0.186,-0.077 0.375,-0.151 0.565,-0.221 0.424,-0.157 0.856,-0.296 1.291,-0.417 0.823,-0.229 1.513,-0.359 2.435,-0.463 1.674,-0.189 3.245,-0.157 4.905,0.144 3.194,0.578 5.819,2.43 7.467,5.275 1.801,3.108 2.12,6.859 1.236,10.304 -1.24,4.827 -4.705,8.746 -8.862,11.346 -0.502,0.314 -0.352,1.108 0.272,0.751 4.216,-2.412 7.822,-6.027 9.587,-10.613 1.441,-3.743 1.673,-7.998 0.157,-11.76 -1.413,-3.51 -4.153,-6.188 -7.787,-7.269 -3.602,-1.071 -7.73,-0.766 -11.212,0.6 -2.14,0.838 -4.081,2.094 -5.586,3.846 -1.409,1.643 -2.527,3.921 -2.266,6.126 0.032,0.276 0.133,0.451 0.274,0.552 -0.001,0.192 0.01,0.384 0.032,0.573 -1.583,-0.819 -2.932,-2.093 -3.705,-3.714 -1.075,-2.254 -1.021,-4.699 0.108,-6.924 1.903,-3.749 4.994,-6.348 9.028,-7.434 2.456,-0.661 5.013,-0.796 7.544,-0.699 2.74,0.105 5.434,0.464 8.036,1.355 4.653,1.592 8.921,4.804 11.481,9.037 1.373,2.271 2.267,4.804 2.495,7.452 0.11,1.29 0.05,2.569 -0.165,3.847 -0.237,1.409 -0.733,2.736 -1.131,4.105 -0.16,0.553 -0.075,1.158 0.52,1.404 0.541,0.223 1.26,-10e-4 1.576,-0.511 1.549,-2.495 2.03,-5.625 1.934,-8.525 -0.087,-2.625 -0.8,-5.25 -1.975,-7.595 -1.424,-2.844 -3.465,-5.29 -5.9,-7.271 0.941,0.342 1.868,0.726 2.773,1.16 3.325,1.592 6.252,3.889 8.566,6.759 1.473,1.828 2.557,3.837 3.709,5.868 0.585,1.028 2.381,-0.184 1.98,-1.14 z m -43.553,1.549 c -0.016,0.074 -0.012,0.05 0,0 z m -8.653,-10.993 c -1.591,2.837 -2.231,6.219 -0.795,9.275 0.885,1.885 2.363,3.359 4.148,4.309 -0.866,0.014 -1.983,-0.157 -2.783,-0.455 -1.829,-0.681 -3.209,-1.919 -4.248,-3.579 -0.926,-1.479 -1.452,-3.374 -1.504,-5.137 -0.028,-0.944 0.037,-1.605 0.294,-2.512 0.134,-0.471 0.166,-0.562 0.387,-1.016 0.24,-0.49 0.279,-0.552 0.576,-0.933 0.469,-0.602 1.165,-1.166 1.919,-1.504 1.081,-0.483 2.303,-0.623 3.477,-0.659 -0.54,0.69 -1.032,1.428 -1.471,2.211 z"
         style="fill:#ffffff;fill-rule:nonzero"
         id="path3853"
         inkscape:connector-curvature="0" /></g></g></svg>